<svg xmlns="http://www.w3.org/2000/svg" viewBox="0 0 32 32">
  <rect width="32" height="32" rx="7" fill="#1a3a2e"/>
  <path d="M16 4 C19 5 24 8 24 14 C24 19 21 25 16 28 C11 25 8 19 8 14 C8 8 13 5 16 4Z" fill="#56b888"/>
  <path d="M16 5 C16 5 15 12 14 18 C13.5 21 13 24 16 28" stroke="#1a3a2e" stroke-width="1.4" stroke-linecap="round" fill="none" opacity="0.55"/>
  <path d="M16 11 C14 10 11 11 10 13" stroke="#1a3a2e" stroke-width="0.9" stroke-linecap="round" fill="none" opacity="0.4"/>
  <path d="M15.5 15 C13.5 14 11 15 10 17" stroke="#1a3a2e" stroke-width="0.9" stroke-linecap="round" fill="none" opacity="0.4"/>
  <path d="M16 11 C18 10 21 11 22 13" stroke="#1a3a2e" stroke-width="0.9" stroke-linecap="round" fill="none" opacity="0.4"/>
  <path d="M15.5 15 C17.5 14 21 15 22 17" stroke="#1a3a2e" stroke-width="0.9" stroke-linecap="round" fill="none" opacity="0.4"/>
</svg>
